<mxfile host="app.diagrams.net" agent="Mozilla/5.0 (Windows NT 10.0; Win64; x64) AppleWebKit/537.36 (KHTML, like Gecko) Chrome/134.0.0.0 Safari/537.36" version="26.1.1">
  <diagram name="Page-1" id="VDgMftrK0lQw-klRvmnD">
    <mxGraphModel dx="1434" dy="784" grid="1" gridSize="10" guides="1" tooltips="1" connect="1" arrows="1" fold="1" page="1" pageScale="1" pageWidth="850" pageHeight="1100" math="1" shadow="0">
      <root>
        <mxCell id="0" />
        <mxCell id="1" parent="0" />
        <mxCell id="gPLuPN7H7vcohm5CUL5W-1" value="图片\(x\)" style="text;html=1;align=center;verticalAlign=middle;resizable=0;points=[];autosize=1;strokeColor=none;fillColor=none;fontFamily=SimSun;fontSize=17;" vertex="1" parent="1">
          <mxGeometry x="335" y="510" width="100" height="30" as="geometry" />
        </mxCell>
        <mxCell id="gPLuPN7H7vcohm5CUL5W-9" style="edgeStyle=orthogonalEdgeStyle;rounded=0;orthogonalLoop=1;jettySize=auto;html=1;exitX=0.5;exitY=0;exitDx=0;exitDy=0;entryX=0.5;entryY=1;entryDx=0;entryDy=0;" edge="1" parent="1" source="gPLuPN7H7vcohm5CUL5W-2" target="gPLuPN7H7vcohm5CUL5W-8">
          <mxGeometry relative="1" as="geometry" />
        </mxCell>
        <mxCell id="gPLuPN7H7vcohm5CUL5W-2" value="&lt;font face=&quot;SimSun&quot; style=&quot;font-size: 17px;&quot;&gt;编码器\(f\)&lt;/font&gt;" style="rounded=1;whiteSpace=wrap;html=1;fillColor=#dae8fc;strokeColor=#6c8ebf;" vertex="1" parent="1">
          <mxGeometry x="210" y="420" width="120" height="60" as="geometry" />
        </mxCell>
        <mxCell id="gPLuPN7H7vcohm5CUL5W-3" value="&lt;font face=&quot;SimSun&quot; style=&quot;font-size: 17px;&quot;&gt;编码器\(f\)&lt;/font&gt;" style="rounded=1;whiteSpace=wrap;html=1;fillColor=#dae8fc;strokeColor=#6c8ebf;" vertex="1" parent="1">
          <mxGeometry x="430" y="420" width="120" height="60" as="geometry" />
        </mxCell>
        <mxCell id="gPLuPN7H7vcohm5CUL5W-6" style="edgeStyle=orthogonalEdgeStyle;rounded=0;orthogonalLoop=1;jettySize=auto;html=1;exitX=0.25;exitY=1;exitDx=0;exitDy=0;entryX=0.5;entryY=1;entryDx=0;entryDy=0;" edge="1" parent="1" source="gPLuPN7H7vcohm5CUL5W-5" target="gPLuPN7H7vcohm5CUL5W-2">
          <mxGeometry relative="1" as="geometry" />
        </mxCell>
        <mxCell id="gPLuPN7H7vcohm5CUL5W-5" value="" style="shape=curlyBracket;whiteSpace=wrap;html=1;rounded=1;flipH=1;labelPosition=right;verticalLabelPosition=middle;align=left;verticalAlign=middle;rotation=90;" vertex="1" parent="1">
          <mxGeometry x="375" y="385" width="20" height="230" as="geometry" />
        </mxCell>
        <mxCell id="gPLuPN7H7vcohm5CUL5W-7" style="edgeStyle=orthogonalEdgeStyle;rounded=0;orthogonalLoop=1;jettySize=auto;html=1;entryX=0.583;entryY=1;entryDx=0;entryDy=0;entryPerimeter=0;" edge="1" parent="1" target="gPLuPN7H7vcohm5CUL5W-3">
          <mxGeometry relative="1" as="geometry">
            <mxPoint x="500" y="490" as="sourcePoint" />
          </mxGeometry>
        </mxCell>
        <mxCell id="gPLuPN7H7vcohm5CUL5W-8" value="预测器\(h\)" style="rounded=1;whiteSpace=wrap;html=1;fontFamily=SimSun;fontSize=17;fillColor=#ffe6cc;strokeColor=#d79b00;" vertex="1" parent="1">
          <mxGeometry x="210" y="350" width="120" height="35" as="geometry" />
        </mxCell>
        <mxCell id="gPLuPN7H7vcohm5CUL5W-10" value="相似度" style="text;html=1;align=center;verticalAlign=middle;resizable=0;points=[];autosize=1;strokeColor=none;fillColor=none;fontSize=17;fontFamily=SimSun;" vertex="1" parent="1">
          <mxGeometry x="344" y="250" width="70" height="30" as="geometry" />
        </mxCell>
        <mxCell id="gPLuPN7H7vcohm5CUL5W-11" style="rounded=0;orthogonalLoop=1;jettySize=auto;html=1;exitX=0.5;exitY=0;exitDx=0;exitDy=0;entryX=0;entryY=0.467;entryDx=0;entryDy=0;entryPerimeter=0;edgeStyle=orthogonalEdgeStyle;strokeWidth=1;endSize=10;" edge="1" parent="1" source="gPLuPN7H7vcohm5CUL5W-8" target="gPLuPN7H7vcohm5CUL5W-10">
          <mxGeometry relative="1" as="geometry" />
        </mxCell>
        <mxCell id="gPLuPN7H7vcohm5CUL5W-12" style="edgeStyle=orthogonalEdgeStyle;rounded=0;orthogonalLoop=1;jettySize=auto;html=1;exitX=0.5;exitY=0;exitDx=0;exitDy=0;entryX=1;entryY=0.433;entryDx=0;entryDy=0;entryPerimeter=0;endSize=10;" edge="1" parent="1" source="gPLuPN7H7vcohm5CUL5W-3" target="gPLuPN7H7vcohm5CUL5W-10">
          <mxGeometry relative="1" as="geometry" />
        </mxCell>
        <mxCell id="gPLuPN7H7vcohm5CUL5W-13" value="" style="endArrow=classic;html=1;rounded=0;dashed=1;" edge="1" parent="1">
          <mxGeometry width="50" height="50" relative="1" as="geometry">
            <mxPoint x="500" y="300" as="sourcePoint" />
            <mxPoint x="500" y="360" as="targetPoint" />
          </mxGeometry>
        </mxCell>
        <mxCell id="gPLuPN7H7vcohm5CUL5W-14" value="停止梯度" style="text;html=1;align=center;verticalAlign=middle;resizable=0;points=[];autosize=1;strokeColor=none;fillColor=none;fontSize=17;fontFamily=SimSun;" vertex="1" parent="1">
          <mxGeometry x="500" y="320" width="90" height="30" as="geometry" />
        </mxCell>
      </root>
    </mxGraphModel>
  </diagram>
</mxfile>
